<mxfile host="Electron" modified="2024-06-21T03:04:14.296Z" agent="Mozilla/5.0 (Macintosh; Intel Mac OS X 10_15_7) AppleWebKit/537.36 (KHTML, like Gecko) draw.io/24.1.0 Chrome/120.0.6099.109 Electron/28.1.0 Safari/537.36" etag="93jbDUyclI9bMD6eO811" version="24.1.0" type="device">
  <diagram name="第 1 页" id="L6LR1fwa6pHO7NQinEbo">
    <mxGraphModel dx="1834" dy="854" grid="1" gridSize="10" guides="1" tooltips="1" connect="1" arrows="1" fold="1" page="0" pageScale="1" pageWidth="827" pageHeight="1169" math="0" shadow="0">
      <root>
        <mxCell id="0" />
        <mxCell id="1" parent="0" />
        <mxCell id="R1VtFOlaIQC1SPlT6f8L-5" value="" style="rounded=1;whiteSpace=wrap;html=1;fillColor=none;fontFamily=Comic Sans MS;" vertex="1" parent="1">
          <mxGeometry x="-80" y="85" width="780" height="130" as="geometry" />
        </mxCell>
        <mxCell id="R1VtFOlaIQC1SPlT6f8L-1" value="&lt;p style=&quot;margin: 0px; font-variant-numeric: normal; font-variant-east-asian: normal; font-variant-alternates: normal; font-kerning: auto; font-optical-sizing: auto; font-feature-settings: normal; font-variation-settings: normal; font-variant-position: normal; font-stretch: normal; line-height: normal; font-family: Courier; color: rgb(8, 8, 8); text-align: start;&quot; class=&quot;p1&quot;&gt;&lt;span style=&quot;color: rgb(0, 51, 179);&quot; class=&quot;s1&quot;&gt;public final &lt;/span&gt;&lt;span style=&quot;color: rgb(0, 0, 0);&quot; class=&quot;s2&quot;&gt;Employee&lt;/span&gt;[] &lt;span style=&quot;color: rgb(135, 16, 148);&quot; class=&quot;s3&quot;&gt;emps &lt;/span&gt;= {&lt;br&gt;&lt;span class=&quot;Apple-converted-space&quot;&gt;&amp;nbsp; &amp;nbsp; &amp;nbsp; &amp;nbsp; &lt;/span&gt;&lt;span style=&quot;color: rgb(0, 51, 179);&quot; class=&quot;s1&quot;&gt;new &lt;/span&gt;Employee(&lt;span style=&quot;color: rgb(23, 80, 235);&quot; class=&quot;s4&quot;&gt;100&lt;/span&gt;, &lt;span style=&quot;color: rgb(6, 125, 23);&quot; class=&quot;s5&quot;&gt;&quot;Bill&quot;&lt;/span&gt;, &lt;span style=&quot;color: rgb(23, 80, 235);&quot; class=&quot;s4&quot;&gt;1&lt;/span&gt;),&lt;br&gt;&lt;span class=&quot;Apple-converted-space&quot;&gt;&amp;nbsp; &amp;nbsp; &amp;nbsp; &amp;nbsp; &lt;/span&gt;&lt;span style=&quot;color: rgb(0, 51, 179);&quot; class=&quot;s1&quot;&gt;new &lt;/span&gt;Employee(&lt;span style=&quot;color: rgb(23, 80, 235);&quot; class=&quot;s4&quot;&gt;200&lt;/span&gt;, &lt;span style=&quot;color: rgb(6, 125, 23);&quot; class=&quot;s5&quot;&gt;&quot;Eric&quot;&lt;/span&gt;, &lt;span style=&quot;color: rgb(23, 80, 235);&quot; class=&quot;s4&quot;&gt;1&lt;/span&gt;),&lt;br&gt;&lt;span class=&quot;Apple-converted-space&quot;&gt;&amp;nbsp; &amp;nbsp; &amp;nbsp; &amp;nbsp; &lt;/span&gt;&lt;span style=&quot;color: rgb(0, 51, 179);&quot; class=&quot;s1&quot;&gt;new &lt;/span&gt;Employee(&lt;span style=&quot;color: rgb(23, 80, 235);&quot; class=&quot;s4&quot;&gt;150&lt;/span&gt;, &lt;span style=&quot;color: rgb(6, 125, 23);&quot; class=&quot;s5&quot;&gt;&quot;Sebastian&quot;&lt;/span&gt;, &lt;span style=&quot;color: rgb(23, 80, 235);&quot; class=&quot;s4&quot;&gt;3&lt;/span&gt;),&lt;br&gt;};&lt;/p&gt;" style="rounded=0;whiteSpace=wrap;html=1;fontFamily=Comic Sans MS;fontSize=12;fillColor=#dae8fc;strokeColor=#6c8ebf;" vertex="1" parent="1">
          <mxGeometry x="-50" y="120" width="320" height="80" as="geometry" />
        </mxCell>
        <mxCell id="R1VtFOlaIQC1SPlT6f8L-2" value="&lt;p style=&quot;margin: 0px; font-variant-numeric: normal; font-variant-east-asian: normal; font-variant-alternates: normal; font-kerning: auto; font-optical-sizing: auto; font-feature-settings: normal; font-variation-settings: normal; font-variant-position: normal; font-stretch: normal; line-height: normal; font-family: Courier; color: rgb(8, 8, 8); text-align: start;&quot; class=&quot;p1&quot;&gt;&lt;span style=&quot;color: rgb(0, 51, 179);&quot; class=&quot;s1&quot;&gt;public final &lt;/span&gt;&lt;span style=&quot;color: rgb(0, 0, 0);&quot; class=&quot;s2&quot;&gt;Department&lt;/span&gt;[] &lt;span style=&quot;color: rgb(135, 16, 148);&quot; class=&quot;s3&quot;&gt;depts &lt;/span&gt;= {&lt;br&gt;&lt;span class=&quot;Apple-converted-space&quot;&gt;&amp;nbsp; &amp;nbsp; &amp;nbsp; &amp;nbsp; &lt;/span&gt;&lt;span style=&quot;color: rgb(0, 51, 179);&quot; class=&quot;s1&quot;&gt;new &lt;/span&gt;Department(&lt;span style=&quot;color: rgb(23, 80, 235);&quot; class=&quot;s4&quot;&gt;1&lt;/span&gt;, &lt;span style=&quot;color: rgb(6, 125, 23);&quot; class=&quot;s5&quot;&gt;&quot;LeaderShip&quot;&lt;/span&gt;),&lt;br&gt;&lt;span class=&quot;Apple-converted-space&quot;&gt;&amp;nbsp; &amp;nbsp; &amp;nbsp; &amp;nbsp; &lt;/span&gt;&lt;span style=&quot;color: rgb(0, 51, 179);&quot; class=&quot;s1&quot;&gt;new &lt;/span&gt;Department(&lt;span style=&quot;color: rgb(23, 80, 235);&quot; class=&quot;s4&quot;&gt;2&lt;/span&gt;, &lt;span style=&quot;color: rgb(6, 125, 23);&quot; class=&quot;s5&quot;&gt;&quot;TestGroup&quot;&lt;/span&gt;),&lt;br&gt;&lt;span class=&quot;Apple-converted-space&quot;&gt;&amp;nbsp; &amp;nbsp; &amp;nbsp; &amp;nbsp; &lt;/span&gt;&lt;span style=&quot;color: rgb(0, 51, 179);&quot; class=&quot;s1&quot;&gt;new &lt;/span&gt;Department(&lt;span style=&quot;color: rgb(23, 80, 235);&quot; class=&quot;s4&quot;&gt;3&lt;/span&gt;, &lt;span style=&quot;color: rgb(6, 125, 23);&quot; class=&quot;s5&quot;&gt;&quot;Development&quot;&lt;/span&gt;)&lt;br&gt;};&lt;/p&gt;" style="rounded=0;whiteSpace=wrap;html=1;fontFamily=Comic Sans MS;fontSize=12;fillColor=#dae8fc;strokeColor=#6c8ebf;" vertex="1" parent="1">
          <mxGeometry x="310" y="120" width="360" height="80" as="geometry" />
        </mxCell>
        <mxCell id="R1VtFOlaIQC1SPlT6f8L-3" value="&lt;p class=&quot;p1&quot; style=&quot;margin: 0px; font-variant-numeric: normal; font-variant-east-asian: normal; font-variant-alternates: normal; font-kerning: auto; font-optical-sizing: auto; font-feature-settings: normal; font-variation-settings: normal; font-variant-position: normal; font-stretch: normal; line-height: normal; color: rgb(8, 8, 8); text-align: start; font-size: 12px;&quot;&gt;Table: Employee&lt;/p&gt;" style="text;html=1;align=center;verticalAlign=middle;whiteSpace=wrap;rounded=0;fontFamily=Comic Sans MS;fontSize=12;fillColor=#dae8fc;strokeColor=#6c8ebf;" vertex="1" parent="1">
          <mxGeometry x="-50" y="90" width="100" height="30" as="geometry" />
        </mxCell>
        <mxCell id="R1VtFOlaIQC1SPlT6f8L-4" value="&lt;p class=&quot;p1&quot; style=&quot;margin: 0px; font-variant-numeric: normal; font-variant-east-asian: normal; font-variant-alternates: normal; font-kerning: auto; font-optical-sizing: auto; font-feature-settings: normal; font-variation-settings: normal; font-variant-position: normal; font-stretch: normal; line-height: normal; color: rgb(8, 8, 8); text-align: start; font-size: 12px;&quot;&gt;Table: Department&lt;/p&gt;" style="text;html=1;align=center;verticalAlign=middle;whiteSpace=wrap;rounded=0;fontFamily=Comic Sans MS;fontSize=12;fillColor=#dae8fc;strokeColor=#6c8ebf;" vertex="1" parent="1">
          <mxGeometry x="310" y="90" width="110" height="30" as="geometry" />
        </mxCell>
        <mxCell id="R1VtFOlaIQC1SPlT6f8L-6" value="Database: hr" style="text;html=1;align=center;verticalAlign=middle;whiteSpace=wrap;rounded=0;fontFamily=Comic Sans MS;fillColor=#dae8fc;strokeColor=#6c8ebf;" vertex="1" parent="1">
          <mxGeometry x="-70" y="55" width="90" height="30" as="geometry" />
        </mxCell>
        <mxCell id="R1VtFOlaIQC1SPlT6f8L-8" style="edgeStyle=orthogonalEdgeStyle;rounded=0;orthogonalLoop=1;jettySize=auto;html=1;" edge="1" parent="1">
          <mxGeometry relative="1" as="geometry">
            <mxPoint x="288" y="220" as="targetPoint" />
            <mxPoint x="288" y="270" as="sourcePoint" />
          </mxGeometry>
        </mxCell>
        <mxCell id="R1VtFOlaIQC1SPlT6f8L-7" value="&lt;p class=&quot;p1&quot; style=&quot;margin: 0px; font-variant-numeric: normal; font-variant-east-asian: normal; font-variant-alternates: normal; font-kerning: auto; font-optical-sizing: auto; font-feature-settings: normal; font-variation-settings: normal; font-variant-position: normal; font-stretch: normal; line-height: normal; color: rgb(6, 125, 23); text-align: start;&quot;&gt;&lt;span class=&quot;s1&quot; style=&quot;color: rgb(0, 0, 0);&quot;&gt;ResultSet resultSet &lt;/span&gt;&lt;span class=&quot;s2&quot; style=&quot;color: rgb(8, 8, 8);&quot;&gt;= &lt;/span&gt;&lt;span class=&quot;s1&quot; style=&quot;color: rgb(0, 0, 0);&quot;&gt;statement&lt;/span&gt;&lt;span class=&quot;s2&quot; style=&quot;color: rgb(8, 8, 8);&quot;&gt;.executeQuery(&lt;br&gt;&lt;span class=&quot;Apple-converted-space&quot;&gt;&amp;nbsp; &amp;nbsp; &amp;nbsp; &amp;nbsp; &lt;/span&gt;&lt;/span&gt;&quot;&lt;span class=&quot;s3&quot; style=&quot;background-color: rgb(237, 252, 237);&quot;&gt;select d.deptno, min(e.empid) as empid &lt;/span&gt;&lt;span class=&quot;s4&quot; style=&quot;color: rgb(0, 55, 166); background-color: rgb(237, 252, 237);&quot;&gt;\n&lt;/span&gt;&quot;&lt;br&gt;&lt;span class=&quot;Apple-converted-space&quot;&gt;&amp;nbsp; &amp;nbsp; &amp;nbsp; &amp;nbsp; &amp;nbsp; &amp;nbsp; &amp;nbsp; &amp;nbsp; &lt;/span&gt;&lt;span class=&quot;s2&quot; style=&quot;color: rgb(8, 8, 8);&quot;&gt;+ &lt;/span&gt;&quot;&lt;span class=&quot;s3&quot; style=&quot;background-color: rgb(237, 252, 237);&quot;&gt;from hr.emps as e&lt;/span&gt;&lt;span class=&quot;s4&quot; style=&quot;color: rgb(0, 55, 166); background-color: rgb(237, 252, 237);&quot;&gt;\n&lt;/span&gt;&quot;&lt;br&gt;&lt;span class=&quot;Apple-converted-space&quot;&gt;&amp;nbsp; &amp;nbsp; &amp;nbsp; &amp;nbsp; &amp;nbsp; &amp;nbsp; &amp;nbsp; &amp;nbsp; &lt;/span&gt;&lt;span class=&quot;s2&quot; style=&quot;color: rgb(8, 8, 8);&quot;&gt;+ &lt;/span&gt;&quot;&lt;span class=&quot;s3&quot; style=&quot;background-color: rgb(237, 252, 237);&quot;&gt;join hr.depts as d&lt;/span&gt;&lt;span class=&quot;s4&quot; style=&quot;color: rgb(0, 55, 166); background-color: rgb(237, 252, 237);&quot;&gt;\n&lt;/span&gt;&quot;&lt;br&gt;&lt;span class=&quot;Apple-converted-space&quot;&gt;&amp;nbsp; &amp;nbsp; &amp;nbsp; &amp;nbsp; &amp;nbsp; &amp;nbsp; &amp;nbsp; &amp;nbsp; &lt;/span&gt;&lt;span class=&quot;s2&quot; style=&quot;color: rgb(8, 8, 8);&quot;&gt;+ &lt;/span&gt;&quot;&lt;span class=&quot;s3&quot; style=&quot;background-color: rgb(237, 252, 237);&quot;&gt;&lt;span class=&quot;Apple-converted-space&quot;&gt;&amp;nbsp; &lt;/span&gt;on e.deptno = d.deptno&lt;/span&gt;&lt;span class=&quot;s4&quot; style=&quot;color: rgb(0, 55, 166); background-color: rgb(237, 252, 237);&quot;&gt;\n&lt;/span&gt;&quot;&lt;br&gt;&lt;span class=&quot;Apple-converted-space&quot;&gt;&amp;nbsp; &amp;nbsp; &amp;nbsp; &amp;nbsp; &amp;nbsp; &amp;nbsp; &amp;nbsp; &amp;nbsp; &lt;/span&gt;&lt;span class=&quot;s2&quot; style=&quot;color: rgb(8, 8, 8);&quot;&gt;+ &lt;/span&gt;&quot;&lt;span class=&quot;s3&quot; style=&quot;background-color: rgb(237, 252, 237);&quot;&gt;group by d.deptno&lt;/span&gt;&lt;span class=&quot;s4&quot; style=&quot;color: rgb(0, 55, 166); background-color: rgb(237, 252, 237);&quot;&gt;\n&lt;/span&gt;&quot;&lt;br&gt;&lt;span class=&quot;Apple-converted-space&quot;&gt;&amp;nbsp; &amp;nbsp; &amp;nbsp; &amp;nbsp; &amp;nbsp; &amp;nbsp; &amp;nbsp; &amp;nbsp; &lt;/span&gt;&lt;span class=&quot;s2&quot; style=&quot;color: rgb(8, 8, 8);&quot;&gt;+ &lt;/span&gt;&quot;&lt;span class=&quot;s3&quot; style=&quot;background-color: rgb(237, 252, 237);&quot;&gt;having count(*) &amp;gt; 1&lt;/span&gt;&quot;&lt;span class=&quot;s2&quot; style=&quot;color: rgb(8, 8, 8);&quot;&gt;);&lt;/span&gt;&lt;/p&gt;" style="rounded=1;whiteSpace=wrap;html=1;fillColor=#d5e8d4;strokeColor=#82b366;fontFamily=Comic Sans MS;" vertex="1" parent="1">
          <mxGeometry x="86.25" y="280" width="402.5" height="140" as="geometry" />
        </mxCell>
        <mxCell id="R1VtFOlaIQC1SPlT6f8L-10" style="edgeStyle=orthogonalEdgeStyle;rounded=0;orthogonalLoop=1;jettySize=auto;html=1;dashed=1;" edge="1" parent="1">
          <mxGeometry relative="1" as="geometry">
            <mxPoint x="320" y="270" as="targetPoint" />
            <mxPoint x="320" y="220" as="sourcePoint" />
          </mxGeometry>
        </mxCell>
        <mxCell id="R1VtFOlaIQC1SPlT6f8L-11" style="edgeStyle=orthogonalEdgeStyle;rounded=0;orthogonalLoop=1;jettySize=auto;html=1;dashed=1;" edge="1" parent="1">
          <mxGeometry relative="1" as="geometry">
            <mxPoint x="320" y="480" as="targetPoint" />
            <mxPoint x="320" y="430" as="sourcePoint" />
          </mxGeometry>
        </mxCell>
        <mxCell id="R1VtFOlaIQC1SPlT6f8L-12" value="&lt;p class=&quot;p1&quot; style=&quot;margin: 0px; font-variant-numeric: normal; font-variant-east-asian: normal; font-variant-alternates: normal; font-kerning: auto; font-optical-sizing: auto; font-feature-settings: normal; font-variation-settings: normal; font-variant-position: normal; font-stretch: normal; line-height: normal; font-family: Courier; text-align: start;&quot;&gt;deptno: 1,&lt;span style=&quot;background-color: initial;&quot;&gt;empid: 100&lt;/span&gt;&lt;/p&gt;" style="rounded=1;whiteSpace=wrap;html=1;fillColor=#ffe6cc;strokeColor=#d79b00;" vertex="1" parent="1">
          <mxGeometry x="230" y="490" width="170" height="40" as="geometry" />
        </mxCell>
      </root>
    </mxGraphModel>
  </diagram>
</mxfile>
